HIERARCHY
ROOT Hips
{
	OFFSET 0.00000 0.00000 0.00000
	CHANNELS 6 Xposition Yposition Zposition Zrotation Yrotation Xrotation 
	JOINT LHipJoint
	{
		OFFSET 0 0 0
		CHANNELS 3 Zrotation Yrotation Xrotation
		JOINT LeftUpLeg
		{
			OFFSET 1.53139 -1.83434 0.76626
			CHANNELS 3 Zrotation Yrotation Xrotation
			JOINT LeftLeg
			{
				OFFSET 2.56112 -7.03663 0.00000
				CHANNELS 3 Zrotation Yrotation Xrotation
				JOINT LeftFoot
				{
					OFFSET 2.59983 -7.14299 0.00000
					CHANNELS 3 Zrotation Yrotation Xrotation
					JOINT LeftToeBase
					{
						OFFSET 0.13742 -0.37757 2.00054
						CHANNELS 3 Zrotation Yrotation Xrotation
						End Site
						{
							OFFSET 0.00000 -0.00000 1.02897
						}
					}
				}
			}
		}
	}
	JOINT RHipJoint
	{
		OFFSET 0 0 0
		CHANNELS 3 Zrotation Yrotation Xrotation
		JOINT RightUpLeg
		{
			OFFSET -1.40122 -1.83435 0.76627
			CHANNELS 3 Zrotation Yrotation Xrotation
			JOINT RightLeg
			{
				OFFSET -2.54052 -6.98003 0.00000
				CHANNELS 3 Zrotation Yrotation Xrotation
				JOINT RightFoot
				{
					OFFSET -2.63179 -7.23079 0.00000
					CHANNELS 3 Zrotation Yrotation Xrotation
					JOINT RightToeBase
					{
						OFFSET -0.24131 -0.66299 2.03908
						CHANNELS 3 Zrotation Yrotation Xrotation
						End Site
						{
							OFFSET -0.00000 -0.00000 1.07391
						}
					}
				}
			}
		}
	}
	JOINT LowerBack
	{
		OFFSET 0 0 0
		CHANNELS 3 Zrotation Yrotation Xrotation
		JOINT Spine
		{
			OFFSET 0.01174 2.10302 -0.29778
			CHANNELS 3 Zrotation Yrotation Xrotation
			JOINT Spine1
			{
				OFFSET 0.00772 2.13227 -0.01247
				CHANNELS 3 Zrotation Yrotation Xrotation
				JOINT Neck
				{
					OFFSET 0 0 0
					CHANNELS 3 Zrotation Yrotation Xrotation
					JOINT Neck1
					{
						OFFSET -0.09219 1.60848 0.31481
						CHANNELS 3 Zrotation Yrotation Xrotation
						JOINT Head
						{
							OFFSET 0.13974 1.65456 -0.31134
							CHANNELS 3 Zrotation Yrotation Xrotation
							End Site
							{
								OFFSET 0.04742 1.69515 -0.14578
							}
						}
					}
				}
				JOINT LeftShoulder
				{
					OFFSET 0 0 0
					CHANNELS 3 Zrotation Yrotation Xrotation
					JOINT LeftArm
					{
						OFFSET 3.24909 1.02882 -0.23993
						CHANNELS 3 Zrotation Yrotation Xrotation
						JOINT LeftForeArm
						{
							OFFSET 5.32955 -0.00000 -0.00000
							CHANNELS 3 Zrotation Yrotation Xrotation
							JOINT LeftHand
							{
								OFFSET 3.69232 -0.00000 -0.00000
								CHANNELS 3 Zrotation Yrotation Xrotation
								JOINT LeftFingerBase
								{
									OFFSET 0 0 0
									CHANNELS 3 Zrotation Yrotation Xrotation
									JOINT LeftHandIndex1
									{
										OFFSET 0.53660 -0.00000 -0.00000
										CHANNELS 3 Zrotation Yrotation Xrotation
										End Site
										{
											OFFSET 0.43262 -0.00000 -0.00000
										}
									}
								}
								JOINT LThumb
								{
									OFFSET 0 0 0
									CHANNELS 3 Zrotation Yrotation Xrotation
									End Site
									{
										OFFSET 0.43922 -0.00000 0.43922
									}
								}
							}
						}
					}
				}
				JOINT RightShoulder
				{
					OFFSET 0 0 0
					CHANNELS 3 Zrotation Yrotation Xrotation
					JOINT RightArm
					{
						OFFSET -3.21387 0.93002 -0.34594
						CHANNELS 3 Zrotation Yrotation Xrotation
						JOINT RightForeArm
						{
							OFFSET -5.23431 -0.00000 0.00000
							CHANNELS 3 Zrotation Yrotation Xrotation
							JOINT RightHand
							{
								OFFSET -3.55301 -0.00000 -0.00000
								CHANNELS 3 Zrotation Yrotation Xrotation
								JOINT RightFingerBase
								{
									OFFSET 0 0 0
									CHANNELS 3 Zrotation Yrotation Xrotation
									JOINT RightHandIndex1
									{
										OFFSET -0.77252 -0.00000 -0.00000
										CHANNELS 3 Zrotation Yrotation Xrotation
										End Site
										{
											OFFSET -0.62283 -0.00000 -0.00000
										}
									}
								}
								JOINT RThumb
								{
									OFFSET 0 0 0
									CHANNELS 3 Zrotation Yrotation Xrotation
									End Site
									{
										OFFSET -0.63234 -0.00000 0.63234
									}
								}
							}
						}
					}
				}
			}
		}
	}
}
MOTION
Frames: 10
Frame Time: .0083333
-8.3527 17.7451 8.4741 -183.3890 34.1017 902.1060 0.0000 0.0000 0.0000 -19.2667 -11.8316 2.1762 0.7973 5.6994 15.9146 0.1056 -13.7703 -10.8954 0.2342 -3.1145 -8.5978 0.0000 0.0000 0.0000 7.9429 5.7181 -27.4541 -2.4330 -9.7151 28.0589 -0.0408 -6.0610 -9.6818 -0.0150 0.7908 -2.1733 3.4615 5.7612 15.5881 -2.8515 8.2057 1.1584 -6.6622 3.9514 -6.5256 -6.7637 4.5984 -17.0062 -1.0918 19.2456 44.5993 5.2916 8.0094 20.0232 0.0000 -0.0000 0.0000 -90.1825 7.8844 13.4836 18.9628 -29.3725 -5.0126 -0.0000 -0.0000 5.3982 20.6168 27.5154 9.8597 -7.1250 0.0000 -0.0000 -11.0410 58.7368 -3.7367 0.0000 -0.0000 0.0000 81.2844 -5.9873 10.6531 -20.6172 31.3788 -5.8493 0.0000 0.0000 4.4921 -13.1453 7.8229 -1.8207 7.1250 -0.0000 -0.0000 9.9328 -21.9897 5.5732
-8.4735 17.7360 8.5317 -183.1410 34.2630 902.1390 0.0000 0.0000 0.0000 -19.2189 -11.9315 1.9733 0.7900 5.6739 15.8411 0.1565 -13.5659 -11.3373 0.3058 -3.5552 -9.8285 0.0000 0.0000 0.0000 8.0495 6.0356 -27.5179 -2.4420 -9.7318 28.1124 -0.0790 -5.7364 -10.1535 -0.0536 1.4935 -4.1078 3.6122 5.7016 15.7235 -2.8068 8.1598 1.1838 -6.7055 3.9239 -6.5644 -7.0300 3.9169 -17.0437 -1.0698 17.9025 44.4795 5.0710 7.4289 19.9707 0.0000 -0.0000 0.0000 -89.7482 7.5825 14.0549 18.9273 -29.3282 -4.9952 -0.0000 -0.0000 6.1975 19.8878 28.2420 9.7138 -7.1250 0.0000 -0.0000 -12.2483 59.2955 -4.3172 0.0000 -0.0000 0.0000 81.5740 -5.6022 10.2214 -20.7877 31.5797 -5.9384 0.0000 0.0000 4.3794 -13.3601 7.5620 -1.7902 7.1250 -0.0000 -0.0000 9.7900 -22.2456 5.4327
-8.5947 17.7319 8.5853 -182.7110 34.3857 902.1770 0.0000 0.0000 0.0000 -19.0143 -11.8929 1.7249 0.8033 5.7203 15.9749 0.1937 -13.4716 -11.6880 0.3718 -3.9165 -10.8418 0.0000 0.0000 0.0000 8.3710 6.1287 -27.5106 -2.4645 -9.7731 28.2449 -0.1131 -5.4147 -10.5177 -0.0972 2.0102 -5.5339 3.9241 5.5953 15.9563 -2.6919 8.0856 1.1836 -6.7727 3.8728 -6.6765 -7.3371 3.2124 -16.9166 -1.0905 16.5513 44.3137 4.8177 6.8473 19.8528 -0.0000 -0.0000 0.0000 -89.3913 7.4737 14.6296 18.9530 -29.3602 -5.0078 -0.0000 -0.0000 6.6151 20.1192 27.8094 9.6984 -7.1250 0.0000 -0.0000 -11.7457 58.9176 -4.0304 -0.0000 -0.0000 0.0000 81.8328 -5.2768 9.8315 -20.8856 31.6946 -5.9897 0.0000 0.0000 4.3202 -13.5655 7.6039 -1.8287 7.1250 -0.0000 -0.0000 9.6392 -22.1957 5.3578
-8.7137 17.7347 8.6371 -182.4760 34.2374 902.1330 0.0000 0.0000 0.0000 -18.9658 -11.9245 1.2764 0.8434 5.8577 16.3722 0.2000 -13.6886 -11.8771 0.3776 -3.9467 -10.9266 0.0000 0.0000 0.0000 8.6120 5.7557 -27.6184 -2.5081 -9.8525 28.5005 -0.1310 -5.3675 -10.8308 -0.1394 2.4063 -6.6301 4.1622 5.3984 16.1327 -2.6144 7.8737 1.1229 -6.8117 3.7506 -6.8468 -7.6276 2.5267 -16.4428 -1.1785 15.2502 44.0744 4.5114 6.3096 19.6065 0.0000 -0.0000 0.0000 -89.0292 7.4661 15.3290 18.8736 -29.2613 -4.9689 -0.0000 -0.0000 6.2938 20.3187 27.0904 9.5714 -7.1250 0.0000 -0.0000 -11.1326 58.2428 -3.6358 0.0000 -0.0000 0.0000 82.0352 -5.0989 9.6597 -20.9741 31.7981 -6.0363 0.0000 0.0000 4.1706 -13.7022 7.7053 -1.8723 7.1250 -0.0000 -0.0000 9.5355 -22.0879 5.3223
-8.8317 17.7432 8.6903 -182.4170 33.8430 901.9940 0.0000 0.0000 0.0000 -19.0850 -12.2780 0.7933 0.9000 6.0462 16.9187 0.1643 -13.9782 -11.6632 0.2838 -3.4263 -9.4680 0.0000 0.0000 0.0000 8.7285 5.2529 -27.7370 -2.5918 -10.0030 28.9864 -0.1302 -5.6939 -11.1579 -0.1644 2.6123 -7.2012 4.3392 5.1486 16.2986 -2.6009 7.5794 1.0619 -6.8680 3.5897 -7.0233 -7.7718 1.8468 -15.7061 -1.4027 13.9287 43.7089 4.0942 5.7867 19.2430 0.0000 -0.0000 0.0000 -88.5631 7.4463 16.2558 18.8516 -29.2339 -4.9582 -0.0000 -0.0000 5.4701 20.3491 27.0326 9.5682 -7.1250 0.0000 -0.0000 -11.0689 58.1916 -3.6010 0.0000 -0.0000 0.0000 82.2589 -4.9889 9.5890 -21.1185 31.9664 -6.1126 0.0000 0.0000 3.9338 -13.7630 7.8758 -1.9223 7.1250 -0.0000 -0.0000 9.4840 -21.9127 5.3311
-8.9403 17.7511 8.7519 -182.3810 33.7130 901.8450 0.0000 0.0000 0.0000 -19.1698 -12.4064 0.2257 0.9587 6.2346 17.4666 0.1165 -14.2519 -11.3149 0.2177 -3.0037 -8.2890 0.0000 0.0000 0.0000 8.9026 4.9167 -27.9550 -2.7315 -10.2471 29.7808 -0.1590 -5.5586 -11.5624 -0.1653 2.6196 -7.2214 4.2863 5.0370 16.4997 -2.5750 7.4307 1.0295 -6.8115 3.5086 -7.2001 -7.9638 1.0941 -15.0577 -1.5355 12.4827 43.3828 3.7235 5.1978 18.9196 -0.0000 0.0000 0.0000 -88.0808 7.3174 16.9513 18.9466 -29.3522 -5.0046 -0.0000 -0.0000 5.7220 20.0019 27.3288 9.4873 -7.1250 0.0000 -0.0000 -11.6035 58.4108 -3.8392 -0.0000 0.0000 0.0000 82.5281 -4.7848 9.5067 -21.2598 32.1303 -6.1875 0.0000 0.0000 3.7685 -13.8649 7.9862 -1.9640 7.1250 -0.0000 -0.0000 9.4056 -21.7966 5.3110
-9.0365 17.7555 8.8166 -182.6380 33.8201 901.5620 0.0000 0.0000 0.0000 -19.4736 -12.2882 -0.3774 1.0127 6.4029 17.9579 0.0810 -14.4827 -11.0756 0.2040 -2.9082 -8.0232 0.0000 0.0000 0.0000 8.9110 4.6183 -28.3311 -2.9291 -10.5794 30.8743 -0.2082 -4.9111 -11.8291 -0.1752 2.6962 -7.4340 3.6395 4.8841 16.5579 -2.4863 7.1204 1.1099 -6.2979 3.3787 -7.2777 -8.4552 0.4274 -14.9418 -1.4859 11.3386 43.3235 3.5977 4.6456 18.8673 0.0000 -0.0000 0.0000 -87.8983 7.0091 16.7746 19.0386 -29.4666 -5.0498 -0.0000 -0.0000 6.7257 19.0467 27.9718 9.1981 -7.1250 0.0000 -0.0000 -12.9993 58.8348 -4.4434 0.0000 -0.0000 0.0000 82.5430 -4.1047 9.9316 -21.1792 32.0369 -6.1447 0.0000 0.0000 3.7621 -14.2454 8.0407 -2.0338 7.1250 -0.0000 -0.0000 9.1287 -21.7258 5.1656
-9.1265 17.7569 8.8781 -182.9810 33.9147 901.1870 0.0000 0.0000 0.0000 -19.8668 -12.2730 -0.8005 1.0579 6.5396 18.3585 0.0567 -14.6180 -10.8985 0.1991 -2.8730 -7.9254 0.0000 0.0000 0.0000 8.8770 4.2958 -28.6823 -3.1804 -10.9816 32.2178 -0.2504 -4.2192 -11.9646 -0.1771 2.7110 -7.4753 2.8783 4.6349 16.5313 -2.3330 6.6699 1.3156 -5.6018 3.1967 -7.2017 -9.1923 -0.1712 -15.0457 -1.4122 10.3837 43.2429 3.5671 4.1098 18.8515 0.0000 -0.0000 0.0000 -87.9603 6.5668 16.3924 19.1101 -29.5553 -5.0850 -0.0000 -0.0000 6.3770 18.7432 28.0016 9.0517 -7.1250 0.0000 -0.0000 -13.3433 58.7952 -4.5510 0.0000 -0.0000 0.0000 82.3073 -3.1828 10.7490 -21.0594 31.8976 -6.0813 0.0000 0.0000 3.8195 -14.4304 8.1389 -2.0864 7.1250 -0.0000 -0.0000 8.9914 -21.6181 5.1082
-9.2140 17.7585 8.9415 -183.1050 33.9130 900.9010 0.0000 0.0000 0.0000 -20.0401 -12.2736 -1.1532 1.0960 6.6528 18.6906 0.0393 -14.8382 -10.8555 0.2106 -2.9543 -8.1514 0.0000 0.0000 0.0000 9.0472 4.0152 -28.9415 -3.4724 -11.4231 33.7205 -0.2818 -3.7382 -12.1167 -0.1617 2.5907 -7.1411 2.4205 4.4777 16.5905 -2.1728 6.3961 1.4421 -5.1173 3.0840 -7.1959 -10.0293 -0.9225 -14.6667 -1.0935 9.0236 43.0381 3.5653 3.4645 18.6287 0.0000 0.0000 0.0000 -87.8951 6.2383 16.3521 19.1576 -29.6140 -5.1085 -0.0000 -0.0000 5.7681 19.9171 26.7423 9.2601 -7.1250 0.0000 -0.0000 -11.3781 57.8045 -3.5969 0.0000 0.0000 0.0000 82.1978 -2.7354 11.3381 -21.1808 32.0388 -6.1456 0.0000 0.0000 3.7498 -14.4049 8.2252 -2.1044 7.1250 -0.0000 -0.0000 9.0064 -21.5313 5.1349
-9.2984 17.7616 9.0096 -182.9290 33.9207 900.8360 0.0000 0.0000 0.0000 -19.9017 -12.3146 -1.5650 1.1362 6.7697 19.0347 0.0185 -15.0451 -10.7691 0.2131 -2.9717 -8.2000 0.0000 0.0000 0.0000 9.5160 3.9222 -29.1693 -3.7846 -11.8682 35.2671 -0.3091 -3.3332 -12.2690 -0.1832 2.7566 -7.6017 2.2077 4.3969 16.6964 -2.0098 6.2616 1.4455 -4.8078 3.0219 -7.3049 -10.7871 -1.7600 -14.0336 -0.5888 7.4362 42.8970 3.6003 2.7773 18.4034 -0.0000 0.0000 0.0000 -87.6165 6.0635 16.5109 19.2926 -29.7807 -5.1754 -0.0000 -0.0000 5.6836 20.8126 26.1746 9.5184 -7.1250 0.0000 -0.0000 -10.1308 57.4284 -3.1049 -0.0000 0.0000 0.0000 82.2797 -2.4713 11.5925 -21.2448 32.1130 -6.1796 0.0000 0.0000 3.7779 -14.4066 8.2771 -2.1179 7.1250 -0.0000 -0.0000 9.0034 -21.4784 5.1441
